# xmcd
#
# Track frame offsets: 
#        150
#        10478
#        20670
#        33098
#        43875
#        54415
#        65645
#        83095
#        101220
#        114317
#        139427
#        153200
#        165973
#
# Disc length: 2514 seconds
#
# Revision: 1
# Processed by: cddbd v1.5.2PL0 Copyright (c) Steve Scherf et al.
# Submitted via: ExactAudioCopyFreeDBPlugin 1.0
#
DISCID=a609d00d
DTITLE=Johnny Cash - American Recordings [RE 2007]
DYEAR=1994
DGENRE=Country
TTITLE0=Delia's Gone
TTITLE1=Let the Train Blow the Wistle
TTITLE2=The Beast in Me
TTITLE3=Drive On
TTITLE4=Why Me Lord
TTITLE5=Thirteen
TTITLE6=Oh, Bury Me Not
TTITLE7=Bird on a Wire
TTITLE8=Tennessee Stud
TTITLE9=Down There by the Train
TTITLE10=Redemption
TTITLE11=Like a Soldier
TTITLE12=The Man Who Couldn't Cry
EXTD=
EXTT0=
EXTT1=
EXTT2=
EXTT3=
EXTT4=
EXTT5=
EXTT6=
EXTT7=
EXTT8=
EXTT9=
EXTT10=
EXTT11=
EXTT12=
PLAYORDER=
